<svg xmlns="http://www.w3.org/2000/svg" xmlns:xlink="http://www.w3.org/1999/xlink" viewBox="0,0,256,256" width="500px" height="500px">
<g fill="#fa5252" fill-rule="nonzero" stroke="none" stroke-width="1" stroke-linecap="butt" stroke-linejoin="miter" stroke-miterlimit="10" stroke-dasharray="" stroke-dashoffset="0" font-family="none" font-weight="none" font-size="none" text-anchor="none" style="mix-blend-mode: normal">
<g transform="scale(5.12,5.12)">
<path d="M44,3c-0.93359,0 -1.71484,0.63672 -1.9375,1.5l-28.40625,7.75c0.42969,0.53125 0.76953,1.12109 1,1.78125l27.9375,-7.625c0.36328,0.36328 0.85547,0.59375 1.40625,0.59375c1.10547,0 2,-0.89453 2,-2c0,-1.10547 -0.89453,-2 -2,-2zM9,12c-1.85937,0 -3.39844,1.27734 -3.84375,3h-3.15625c-1.10156,0 -2,0.89844 -2,2v28c0,1.10156 0.89844,2 2,2h46c1.10156,0 2,-0.89844 2,-2v-28c0,-1.10156 -0.89844,-2 -2,-2h-35.15625c-0.44531,-1.72266 -1.98437,-3 -3.84375,-3zM34,21c3.27734,0 6.17578,1.56641 8,4h-16c1.82422,-2.43359 4.72656,-4 8,-4zM9,23c1.10547,0 2,0.89063 2,2c0,1.10938 -0.89453,2 -2,2c-1.10547,0 -2,-0.89062 -2,-2c0,-1.10937 0.89453,-2 2,-2zM24.8125,27h18.375c0.40625,0.92969 0.64453,1.94531 0.75,3h-19.875c0.10547,-1.05469 0.34375,-2.07031 0.75,-3zM9,30c1.10547,0 2,0.89063 2,2c0,1.10938 -0.89453,2 -2,2c-1.10547,0 -2,-0.89062 -2,-2c0,-1.10937 0.89453,-2 2,-2zM24.0625,32h19.875c-0.10547,1.05469 -0.34375,2.07031 -0.75,3h-18.375c-0.40625,-0.92969 -0.64453,-1.94531 -0.75,-3zM26,37h16c-1.82422,2.43359 -4.72266,4 -8,4c-3.27344,0 -6.17578,-1.56641 -8,-4z">
</path></g></g></svg>