<?xml version="1.0" encoding="UTF-8"?>
<svg xmlns="http://www.w3.org/2000/svg" xmlns:xlink="http://www.w3.org/1999/xlink" viewBox="0 0 50 50" width="50px" height="50px">
<g id="surface242475336">
<path style=" stroke:none;fill-rule:nonzero;fill:rgb(0%,0%,0%);fill-opacity:1;" d="M 2.90625 7 C 2.9375 7 6.96875 7 7 7 C 7.550781 7 8 7.449219 8 8 L 8 12 C 8 12.550781 7.550781 13 7 13 L 3 13 C 2.449219 13 2 12.550781 2 12 L 2 8 C 1.992188 7.511719 2.335938 7.089844 2.8125 7 C 2.84375 7 2.875 7 2.90625 7 Z M 4 11 L 6 11 L 6 9 L 4 9 Z M 10.8125 9 C 10.84375 9 10.875 9 10.90625 9 C 10.9375 9 46.96875 9 47 9 C 47.359375 8.996094 47.695312 9.183594 47.878906 9.496094 C 48.058594 9.808594 48.058594 10.191406 47.878906 10.503906 C 47.695312 10.816406 47.359375 11.003906 47 11 L 11 11 C 10.449219 11.078125 9.9375 10.691406 9.859375 10.140625 C 9.78125 9.589844 10.167969 9.078125 10.71875 9 C 10.75 9 10.78125 9 10.8125 9 Z M 2.90625 17 C 2.9375 17 6.96875 17 7 17 C 7.550781 17 8 17.449219 8 18 L 8 22 C 8 22.550781 7.550781 23 7 23 L 3 23 C 2.449219 23 2 22.550781 2 22 L 2 18 C 1.992188 17.511719 2.335938 17.089844 2.8125 17 C 2.84375 17 2.875 17 2.90625 17 Z M 4 21 L 6 21 L 6 19 L 4 19 Z M 10.8125 19 C 10.84375 19 10.875 19 10.90625 19 C 10.9375 19 46.96875 19 47 19 C 47.359375 18.996094 47.695312 19.183594 47.878906 19.496094 C 48.058594 19.808594 48.058594 20.191406 47.878906 20.503906 C 47.695312 20.816406 47.359375 21.003906 47 21 L 11 21 C 10.449219 21.078125 9.9375 20.691406 9.859375 20.140625 C 9.78125 19.589844 10.167969 19.078125 10.71875 19 C 10.75 19 10.78125 19 10.8125 19 Z M 2.90625 27 C 2.9375 27 6.96875 27 7 27 C 7.550781 27 8 27.449219 8 28 L 8 32 C 8 32.550781 7.550781 33 7 33 L 3 33 C 2.449219 33 2 32.550781 2 32 L 2 28 C 1.992188 27.511719 2.335938 27.089844 2.8125 27 C 2.84375 27 2.875 27 2.90625 27 Z M 4 31 L 6 31 L 6 29 L 4 29 Z M 10.8125 29 C 10.84375 29 10.875 29 10.90625 29 C 10.925781 29 25.148438 29 35.734375 29 C 35.273438 29.523438 35 30.21875 35 31 L 11 31 C 10.449219 31.078125 9.9375 30.691406 9.859375 30.140625 C 9.78125 29.589844 10.167969 29.078125 10.71875 29 C 10.75 29 10.78125 29 10.8125 29 Z M 47 29 C 47.359375 28.996094 47.695312 29.183594 47.878906 29.496094 C 48.058594 29.808594 48.058594 30.191406 47.878906 30.503906 C 47.695312 30.816406 47.359375 31.003906 47 31 L 45 31 C 45 30.21875 44.726562 29.523438 44.265625 29 C 45.96875 29 46.996094 29 47 29 Z M 2.90625 37 C 2.9375 37 6.96875 37 7 37 C 7.550781 37 8 37.449219 8 38 L 8 42 C 8 42.550781 7.550781 43 7 43 L 3 43 C 2.449219 43 2 42.550781 2 42 L 2 38 C 1.992188 37.511719 2.335938 37.089844 2.8125 37 C 2.84375 37 2.875 37 2.90625 37 Z M 4 41 L 6 41 L 6 39 L 4 39 Z M 10.8125 39 C 10.84375 39 10.875 39 10.90625 39 C 10.921875 39 19.3125 39 28 39 L 28 41 L 11 41 C 10.449219 41.078125 9.9375 40.691406 9.859375 40.140625 C 9.78125 39.589844 10.167969 39.078125 10.71875 39 C 10.75 39 10.78125 39 10.8125 39 Z M 10.8125 39 "/>
<path style=" stroke:none;fill-rule:nonzero;fill:rgb(0%,0%,0%);fill-opacity:1;" d="M 49 37 L 43 37 L 43 31 C 43 30.398438 42.601562 30 42 30 L 38 30 C 37.398438 30 37 30.398438 37 31 L 37 37 L 31 37 C 30.398438 37 30 37.398438 30 38 L 30 42 C 30 42.601562 30.398438 43 31 43 L 37 43 L 37 49 C 37 49.601562 37.398438 50 38 50 L 42 50 C 42.601562 50 43 49.601562 43 49 L 43 43 L 49 43 C 49.601562 43 50 42.601562 50 42 L 50 38 C 50 37.398438 49.601562 37 49 37 Z M 48 41 L 42 41 C 41.398438 41 41 41.398438 41 42 L 41 48 L 39 48 L 39 42 C 39 41.398438 38.601562 41 38 41 L 32 41 L 32 39 L 38 39 C 38.601562 39 39 38.601562 39 38 L 39 32 L 41 32 L 41 38 C 41 38.601562 41.398438 39 42 39 L 48 39 Z M 48 41 "/>
</g>
</svg>
