<svg fill="#000000" xmlns="http://www.w3.org/2000/svg"  viewBox="0 0 50 50" width="50px" height="50px">


<path fill="none" stroke="#000000" stroke-linecap="round" stroke-linejoin="round" stroke-miterlimit="10" stroke-width="2" d="M11 20L47 20"/>


<path d="M7,23H3c-0.552,0-1-0.448-1-1v-4c0-0.552,0.448-1,1-1h4c0.552,0,1,0.448,1,1v4C8,22.552,7.552,23,7,23z"/>


<path fill="none" stroke="#000000" stroke-linecap="round" stroke-linejoin="round" stroke-miterlimit="10" stroke-width="2" d="M11 10L47 10"/>


<path d="M7 13H3c-.552 0-1-.448-1-1V8c0-.552.448-1 1-1h4c.552 0 1 .448 1 1v4C8 12.552 7.552 13 7 13zM7 33H3c-.552 0-1-.448-1-1v-4c0-.552.448-1 1-1h4c.552 0 1 .448 1 1v4C8 32.552 7.552 33 7 33zM7 43H3c-.552 0-1-.448-1-1v-4c0-.552.448-1 1-1h4c.552 0 1 .448 1 1v4C8 42.552 7.552 43 7 43z"/>


<path fill="none" stroke="#000000" stroke-linecap="round" stroke-miterlimit="10" stroke-width="2" d="M36 27A9 9 0 1 0 36 45A9 9 0 1 0 36 27Z"/> -->


<path fill="none" stroke="#000000" stroke-miterlimit="10" stroke-width="2" d="M42 42L49 49"/>

<path d="M11 31h14.102c.325-.707.715-1.375 1.165-2H11c-.552 0-1 .448-1 1S10.448 31 11 31zM24.393 39H11c-.552 0-1 .448-1 1s.448 1 1 1h14.102C24.808 40.361 24.572 39.693 24.393 39z"/> 

</svg>