<svg fill="#000000" xmlns="http://www.w3.org/2000/svg"  viewBox="0 0 50 50" width="50px" height="50px"><path d="M 25 2 C 12.309534 2 2 12.309534 2 25 C 2 37.690466 12.309534 48 25 48 C 32.287796 48 38.785186 44.597914 43 39.300781 L 43 47 A 1.0001 1.0001 0 1 0 45 47 L 45 36 L 43.490234 36 L 43.390625 36 L 34 36 A 1.0001 1.0001 0 1 0 34 38 L 41.480469 38 C 37.635193 42.869289 31.692686 46 25 46 C 13.390466 46 4 36.609534 4 25 C 4 13.390466 13.390466 4 25 4 C 36.609534 4 46 13.390466 46 25 A 1.0001 1.0001 0 1 0 48 25 C 48 12.309534 37.690466 2 25 2 z M 24.984375 8.9863281 A 1.0001 1.0001 0 0 0 24 10 L 24 22.175781 A 3 3 0 0 0 25 28 A 3 3 0 0 0 27.826172 26 L 36 26 A 1.0001 1.0001 0 1 0 36 24 L 27.828125 24 A 3 3 0 0 0 26 22.171875 L 26 10 A 1.0001 1.0001 0 0 0 24.984375 8.9863281 z"/></svg>