<svg fill="#000000" xmlns="http://www.w3.org/2000/svg"  viewBox="0 0 24 24" width="48px" height="48px"><path d="M13 17h-2v3c0 .552.448 1 1 1h0c.552 0 1-.448 1-1V17zM15 5c0-1.657-1.343-3-3-3S9 3.343 9 5c0 .772 0 5.228 0 6 0 1.657 1.343 3 3 3s3-1.343 3-3C15 10.228 15 5.772 15 5z"/><path d="M12,16c-2.471,0-4.523-1.793-4.928-4.148C6.989,11.364,6.583,11,6.088,11h0c-0.606,0-1.094,0.538-0.996,1.137C5.635,15.462,8.521,18,12,18s6.365-2.538,6.908-5.863C19.006,11.538,18.518,11,17.912,11h0c-0.494,0-0.901,0.364-0.984,0.852C16.523,14.207,14.471,16,12,16z"/></svg>