<?xml version="1.0" encoding="UTF-8"?>
<svg xmlns="http://www.w3.org/2000/svg" xmlns:xlink="http://www.w3.org/1999/xlink" viewBox="0 0 50 50" width="50px" height="50px">
<g id="surface10932358">

<path fill="none" stroke="#000000" stroke-linecap="round" stroke-linejoin="round" stroke-miterlimit="10" stroke-width="1" d="M11 20L47 20"/>


<path d="M7,23H3c-0.552,0-1-0.448-1-1v-4c0-0.552,0.448-1,1-1h4c0.552,0,1,0.448,1,1v4C8,22.552,7.552,23,7,23z"/>


<path fill="none" stroke="#000000" stroke-linecap="round" stroke-linejoin="round" stroke-miterlimit="10" stroke-width="1" d="M11 10L47 10"/>


<path d="M7 13H3c-.552 0-1-.448-1-1V8c0-.552.448-1 1-1h4c.552 0 1 .448 1 1v4C8 12.552 7.552 13 7 13zM7 33H3c-.552 0-1-.448-1-1v-4c0-.552.448-1 1-1h4c.552 0 1 .448 1 1v4C8 32.552 7.552 33 7 33zM7 43H3c-.552 0-1-.448-1-1v-4c0-.552.448-1 1-1h4c.552 0 1 .448 1 1v4C8 42.552 7.552 43 7 43z"/>

<path fill="none" stroke="#000000" stroke-linecap="round" stroke-linejoin="round" stroke-miterlimit="10" stroke-width="1" d="M11 30L25 30"/>

<path fill="none" stroke="#000000" stroke-linecap="round" stroke-linejoin="round" stroke-miterlimit="10" stroke-width="1" d="M11 40L25 40"/>

<path style=" stroke:none;fill-rule:nonzero;fill:rgb(0%,0%,0%);fill-opacity:1;" d="M 31.6875 44.832031 C 30.6875 44.832031 29.785156 43.929688 29.785156 42.929688 L 29.785156 28.730469 C 29.785156 27.632812 30.585938 26.832031 31.6875 26.832031 C 31.886719 26.832031 31.988281 26.832031 32.085938 26.929688 L 46.1875 33.929688 C 46.585938 34.132812 47.785156 34.730469 47.785156 35.832031 C 47.785156 36.929688 46.585938 37.53125 46.1875 37.730469 L 32.085938 44.730469 C 31.988281 44.832031 31.785156 44.832031 31.6875 44.832031 Z M 31.6875 44.832031 "/>


</g>
</svg>
