<svg fill="#000000" xmlns="http://www.w3.org/2000/svg"  viewBox="0 0 50 50" width="50px" height="50px"><path d="M 25 2 C 12.317 2 2 12.318 2 25 C 2 37.682 12.317 48 25 48 C 37.683 48 48 37.682 48 25 C 48 12.318 37.683 2 25 2 z M 25 8 C 25.553 8 26 8.448 26 9 L 26 25 C 26 25.552 25.553 26 25 26 C 24.447 26 24 25.552 24 25 L 24 9 C 24 8.448 24.447 8 25 8 z M 30.015625 8.8339844 C 30.145141 8.8238906 30.277203 8.8395625 30.408203 8.8828125 C 37.341203 11.209813 42 17.687 42 25 C 42 34.374 34.374 42 25 42 C 15.626 42 8 34.374 8 25 C 8 17.687 12.658797 11.210766 19.591797 8.8847656 C 20.114797 8.7107656 20.681422 8.9896719 20.857422 9.5136719 C 21.033422 10.037672 20.752516 10.60525 20.228516 10.78125 C 14.110516 12.83325 10 18.547 10 25 C 10 33.271 16.729 40 25 40 C 33.271 40 40 33.271 40 25 C 40 18.547 35.889484 12.832297 29.771484 10.779297 C 29.248484 10.603297 28.966578 10.037672 29.142578 9.5136719 C 29.275328 9.1214219 29.627078 8.8642656 30.015625 8.8339844 z"/></svg>