<svg fill="#000000" xmlns="http://www.w3.org/2000/svg"  viewBox="0 0 512 512" width="64px" height="64px"><path d="M 256 48 C 141.309 48 48 141.309 48 256 A 207.435 207.435 0 0 0 112.75195 406.67383 L 112.75195 403.71289 C 112.75195 324.72489 177.012 260.46289 256 260.46289 C 334.988 260.46289 399.24805 324.72489 399.24805 403.71289 L 399.24805 406.67383 A 207.435 207.435 0 0 0 464 256 C 464 141.309 370.691 48 256 48 z M 253.23828 95.212891 A 77.309 77.309 0 0 1 333.76367 172.45508 A 77.4 77.4 0 0 1 256.45508 249.76367 A 77.309 77.309 0 0 1 253.23828 95.212891 z M 256.45508 115.14648 A 57.309 57.309 0 1 0 313.76367 172.45508 A 57.373 57.373 0 0 0 256.45508 115.14648 z M 256 280.46289 A 123.388 123.388 0 0 0 132.75195 403.71289 L 132.75195 423.44141 A 207.546 207.546 0 0 0 379.25195 423.44141 L 379.25195 403.71289 A 123.388 123.388 0 0 0 256 280.46289 z"/></svg>